<svg width="40" height="40" viewBox="0 0 40 40" fill="none" xmlns="http://www.w3.org/2000/svg">
<path d="M34.375 1.01562C34.375 1.01562 34.375 1.01562 34.375 0.9375C34.375 0.46875 34.8438 0.078125 35.3125 0H39.0625C39.5312 0 40 0.46875 40 0.9375V16.6406C40 17.1094 39.5312 17.5781 39.0625 17.5781H23.3594C22.8906 17.5781 22.4219 17.1094 22.4219 16.6406V12.8906C22.4219 12.4219 22.8906 11.9531 23.3594 11.9531H23.4375L31.3281 12.3438C29.0625 8.98438 23.9844 6.32812 19.9219 6.32812C13.9844 6.32812 7.96875 11.0156 6.5625 16.7969C6.48438 17.1875 6.09375 17.5 5.70312 17.5H1.875C1.32812 17.5 0.9375 17.1094 0.9375 16.5625C0.9375 16.5625 0.9375 16.4844 0.9375 16.4062C2.57812 7.42188 10.4688 0.625 19.9219 0.625H20C24.9219 0.625 31.4844 3.75 34.6875 7.5L34.375 1.01562ZM19.9219 33.75C25.9375 33.75 31.875 29.0625 33.2812 23.2812C33.4375 22.8906 33.8281 22.5781 34.2188 22.5H38.0469C38.5938 22.5 38.9844 22.9688 38.9844 23.4375C38.9844 23.5156 38.9844 23.5938 38.9844 23.6719C37.2656 32.6562 29.375 39.375 19.9219 39.375C15 39.375 8.4375 36.3281 5.23438 32.5781L5.54688 39.0625C5.54688 39.6094 5.07812 40 4.60938 40H0.9375C0.390625 40 0 39.6094 0 39.0625V23.4375C0 22.9688 0.390625 22.5 0.9375 22.5H16.5625C17.0312 22.5 17.5 22.9688 17.5 23.4375V27.1875C17.5 27.6562 17.0312 28.125 16.5625 28.125H16.4844L8.51562 27.7344C10.7812 31.0938 15.8594 33.75 19.9219 33.75Z" fill="black"/>
</svg>
