<svg width="75" height="36" viewBox="0 0 75 36" fill="none" xmlns="http://www.w3.org/2000/svg">
<path d="M9.216 17.8083C9.216 20.1123 9.248 22.0323 9.312 23.5683C9.376 25.0723 9.504 26.2723 9.696 27.1683C9.92 28.0643 10.224 28.6883 10.608 29.0403C11.024 29.3923 11.568 29.5683 12.24 29.5683C12.912 29.5683 13.44 29.3923 13.824 29.0403C14.24 28.6883 14.544 28.0643 14.736 27.1683C14.96 26.2723 15.104 25.0723 15.168 23.5683C15.232 22.0323 15.264 20.1123 15.264 17.8083C15.264 15.5043 15.232 13.6003 15.168 12.0963C15.104 10.5603 14.96 9.34433 14.736 8.44833C14.544 7.55233 14.24 6.92833 13.824 6.57633C13.44 6.22433 12.912 6.04833 12.24 6.04833C11.568 6.04833 11.024 6.22433 10.608 6.57633C10.224 6.92833 9.92 7.55233 9.696 8.44833C9.504 9.34433 9.376 10.5603 9.312 12.0963C9.248 13.6003 9.216 15.5043 9.216 17.8083ZM-3.8147e-06 17.8083C-3.8147e-06 14.6083 0.207996 11.8883 0.623996 9.64834C1.04 7.37633 1.728 5.53633 2.688 4.12833C3.648 2.68833 4.912 1.64833 6.48 1.00834C8.048 0.336334 9.968 0.000333786 12.24 0.000333786C14.512 0.000333786 16.432 0.336334 18 1.00834C19.568 1.64833 20.832 2.68833 21.792 4.12833C22.752 5.53633 23.44 7.37633 23.856 9.64834C24.272 11.8883 24.48 14.6083 24.48 17.8083C24.48 21.0083 24.272 23.7443 23.856 26.0163C23.44 28.2563 22.752 30.0963 21.792 31.5363C20.832 32.9443 19.568 33.9523 18 34.5603C16.432 35.1683 14.512 35.4723 12.24 35.4723C9.968 35.4723 8.048 35.1683 6.48 34.5603C4.912 33.9523 3.648 32.9443 2.688 31.5363C1.728 30.0963 1.04 28.2563 0.623996 26.0163C0.207996 23.7443 -3.8147e-06 21.0083 -3.8147e-06 17.8083ZM36.2239 0.672334V25.3923C36.2239 27.0563 36.4639 28.1763 36.9439 28.7523C37.4239 29.2963 38.0799 29.5683 38.9119 29.5683C39.7439 29.5683 40.3999 29.2963 40.8799 28.7523C41.3599 28.1763 41.5999 27.0563 41.5999 25.3923V0.672334H50.5279V23.1363C50.5279 25.5363 50.2719 27.5363 49.7599 29.1363C49.2479 30.7363 48.4959 32.0163 47.5039 32.9763C46.5439 33.9363 45.3439 34.5923 43.9039 34.9443C42.4639 35.2963 40.7999 35.4723 38.9119 35.4723C37.0559 35.4723 35.3919 35.2963 33.9199 34.9443C32.4799 34.5923 31.2639 33.9363 30.2719 32.9763C29.3119 32.0163 28.5759 30.7363 28.0639 29.1363C27.5519 27.5363 27.2959 25.5363 27.2959 23.1363V0.672334H36.2239ZM58.8637 8.25633H52.2397V0.672334H74.5117V8.25633H67.7917V34.9443H58.8637V8.25633Z" fill="black"/>
</svg>
