<svg width="148" height="148" viewBox="0 0 148 148" fill="none" xmlns="http://www.w3.org/2000/svg">
<g filter="url(#filter0_d_2003_81)">
<rect x="4" width="140" height="140" rx="40" fill="black"/>
<path d="M26.08 45.36H28.48V39H35.68V45.36H38.52V50.2H35.68V60.52C35.68 61.1333 35.8133 61.5733 36.08 61.84C36.3733 62.08 36.8133 62.2 37.4 62.2H38.52V67C37.8533 67 37.1867 67.0133 36.52 67.04C35.8533 67.0933 35.2133 67.12 34.6 67.12C33.5067 67.12 32.5733 67.08 31.8 67C31.0267 66.8933 30.3867 66.6533 29.88 66.28C29.4 65.9067 29.04 65.36 28.8 64.64C28.5867 63.8933 28.48 62.92 28.48 61.72V50.2H26.08V45.36ZM39.8572 45.36H46.8172V48.8H46.8972C47.2972 47.4933 47.9372 46.5067 48.8172 45.84C49.6972 45.1467 50.6705 44.8 51.7372 44.8H52.8972V51.52C52.5772 51.4667 52.2705 51.4267 51.9772 51.4C51.6839 51.3733 51.3905 51.36 51.0972 51.36C49.8172 51.36 48.8172 51.64 48.0972 52.2C47.4039 52.76 47.0572 53.76 47.0572 55.2V67H39.8572V45.36ZM54.2397 38.44H61.4397V43.8H54.2397V38.44ZM54.2397 45.36H61.4397V67H54.2397V45.36ZM62.8722 45.36H70.1922L72.2322 60.92H72.3122L74.3122 45.36H81.7522L76.4722 67H67.9922L62.8722 45.36ZM83.0678 38.44H90.2678V43.8H83.0678V38.44ZM83.0678 45.36H90.2678V67H83.0678V45.36ZM101.1 62.72C101.9 62.72 102.474 62.4267 102.82 61.84C103.167 61.2533 103.34 60.36 103.34 59.16V56.56H103.26C103.047 56.8533 102.714 57.04 102.26 57.12C101.834 57.1733 101.354 57.32 100.82 57.56C100.26 57.8267 99.8736 58.1867 99.6603 58.64C99.447 59.0667 99.3403 59.64 99.3403 60.36C99.3403 61.08 99.5003 61.6533 99.8203 62.08C100.14 62.5067 100.567 62.72 101.1 62.72ZM103.78 67C103.647 66.6267 103.554 66.24 103.5 65.84C103.447 65.44 103.394 65.0133 103.34 64.56H103.26C102.86 65.52 102.22 66.24 101.34 66.72C100.487 67.2 99.5003 67.44 98.3803 67.44C97.287 67.44 96.3536 67.2933 95.5803 67C94.8336 66.7333 94.2203 66.32 93.7403 65.76C93.2603 65.2 92.9136 64.5333 92.7003 63.76C92.487 62.9867 92.3803 62.1333 92.3803 61.2C92.3803 60.1867 92.4736 59.3067 92.6603 58.56C92.8736 57.8133 93.207 57.1733 93.6603 56.64C94.1136 56.08 94.727 55.6133 95.5003 55.24C96.2736 54.84 97.2336 54.5067 98.3803 54.24L101.22 53.56C101.994 53.3733 102.54 53.1067 102.86 52.76C103.18 52.3867 103.34 51.8667 103.34 51.2C103.34 49.8667 102.727 49.2 101.5 49.2C100.807 49.2 100.3 49.4 99.9803 49.8C99.6603 50.1733 99.487 50.9333 99.4603 52.08H93.2203C93.2203 50.5067 93.5003 49.2533 94.0603 48.32C94.6203 47.36 95.3136 46.6267 96.1403 46.12C96.967 45.5867 97.8603 45.24 98.8203 45.08C99.7803 44.8933 100.674 44.8 101.5 44.8C102.754 44.8 103.9 44.9067 104.94 45.12C106.007 45.3067 106.914 45.6667 107.66 46.2C108.434 46.7067 109.02 47.4133 109.42 48.32C109.847 49.2 110.06 50.3467 110.06 51.76V62.32C110.06 63.3333 110.1 64.2267 110.18 65C110.26 65.7733 110.447 66.44 110.74 67H103.78ZM113.38 38.44H120.58V67H113.38V38.44ZM32.68 90.76L25.52 73.44H33.56L36.36 83.4H36.44L39.24 73.44H47.4L40.12 90.76V102H32.68V90.76ZM54.2484 87.72C54.2484 89.64 54.2751 91.24 54.3284 92.52C54.3818 93.7733 54.4884 94.7733 54.6484 95.52C54.8351 96.2667 55.0884 96.7867 55.4084 97.08C55.7551 97.3733 56.2084 97.52 56.7684 97.52C57.3284 97.52 57.7684 97.3733 58.0884 97.08C58.4351 96.7867 58.6884 96.2667 58.8484 95.52C59.0351 94.7733 59.1551 93.7733 59.2084 92.52C59.2618 91.24 59.2884 89.64 59.2884 87.72C59.2884 85.8 59.2618 84.2133 59.2084 82.96C59.1551 81.68 59.0351 80.6667 58.8484 79.92C58.6884 79.1733 58.4351 78.6533 58.0884 78.36C57.7684 78.0667 57.3284 77.92 56.7684 77.92C56.2084 77.92 55.7551 78.0667 55.4084 78.36C55.0884 78.6533 54.8351 79.1733 54.6484 79.92C54.4884 80.6667 54.3818 81.68 54.3284 82.96C54.2751 84.2133 54.2484 85.8 54.2484 87.72ZM46.5684 87.72C46.5684 85.0533 46.7418 82.7867 47.0884 80.92C47.4351 79.0267 48.0084 77.4933 48.8084 76.32C49.6084 75.12 50.6618 74.2533 51.9684 73.72C53.2751 73.16 54.8751 72.88 56.7684 72.88C58.6618 72.88 60.2618 73.16 61.5684 73.72C62.8751 74.2533 63.9284 75.12 64.7284 76.32C65.5284 77.4933 66.1018 79.0267 66.4484 80.92C66.7951 82.7867 66.9684 85.0533 66.9684 87.72C66.9684 90.3867 66.7951 92.6667 66.4484 94.56C66.1018 96.4267 65.5284 97.96 64.7284 99.16C63.9284 100.333 62.8751 101.173 61.5684 101.68C60.2618 102.187 58.6618 102.44 56.7684 102.44C54.8751 102.44 53.2751 102.187 51.9684 101.68C50.6618 101.173 49.6084 100.333 48.8084 99.16C48.0084 97.96 47.4351 96.4267 47.0884 94.56C46.7418 92.6667 46.5684 90.3867 46.5684 87.72ZM76.755 73.44V94.04C76.755 95.4267 76.955 96.36 77.355 96.84C77.755 97.2933 78.3017 97.52 78.995 97.52C79.6883 97.52 80.235 97.2933 80.635 96.84C81.035 96.36 81.235 95.4267 81.235 94.04V73.44H88.675V92.16C88.675 94.16 88.4617 95.8267 88.035 97.16C87.6083 98.4933 86.9817 99.56 86.155 100.36C85.355 101.16 84.355 101.707 83.155 102C81.955 102.293 80.5683 102.44 78.995 102.44C77.4483 102.44 76.0617 102.293 74.835 102C73.635 101.707 72.6217 101.16 71.795 100.36C70.995 99.56 70.3817 98.4933 69.955 97.16C69.5283 95.8267 69.315 94.16 69.315 92.16V73.44H76.755Z" fill="#A5FF00"/>
</g>
<defs>
<filter id="filter0_d_2003_81" x="0" y="0" width="148" height="148" filterUnits="userSpaceOnUse" color-interpolation-filters="sRGB">
<feFlood flood-opacity="0" result="BackgroundImageFix"/>
<feColorMatrix in="SourceAlpha" type="matrix" values="0 0 0 0 0 0 0 0 0 0 0 0 0 0 0 0 0 0 127 0" result="hardAlpha"/>
<feOffset dy="4"/>
<feGaussianBlur stdDeviation="2"/>
<feComposite in2="hardAlpha" operator="out"/>
<feColorMatrix type="matrix" values="0 0 0 0 0 0 0 0 0 0 0 0 0 0 0 0 0 0 0.25 0"/>
<feBlend mode="normal" in2="BackgroundImageFix" result="effect1_dropShadow_2003_81"/>
<feBlend mode="normal" in="SourceGraphic" in2="effect1_dropShadow_2003_81" result="shape"/>
</filter>
</defs>
</svg>
