<svg width="50" height="48" viewBox="0 0 50 48" fill="none" xmlns="http://www.w3.org/2000/svg">
<path d="M44.75 26.5V32.75C44.75 38.7656 40.0625 43.5312 34.2031 43.9219C33.9688 44 33.7344 44 33.5 44H24.75C21.1562 44 17.7969 42.3594 15.6875 39.5469L14.2031 37.5156C13.7344 36.8906 13.5 36.1094 13.5 35.25V31.5C13.5 30.4062 13.9688 29.3125 14.8281 28.6094L17.1719 26.7344V30.25C17.1719 30.9531 17.7188 31.5 18.4219 31.5C19.0469 31.5 19.6719 30.9531 19.6719 30.3281L19.75 7.125C19.75 5.40625 21.0781 4 22.875 4C24.5938 4 26 5.40625 26 7.125V20.0156C26.625 19.3906 27.4844 19 28.5 19C30.2969 19 31.7812 20.3281 32.1719 22.125C32.7969 21.0312 33.9688 20.25 35.375 20.25C37.1719 20.25 38.6562 21.5781 39.0469 23.375C39.5938 22.9844 40.2188 22.75 41 22.75C43.0312 22.75 44.75 24.4688 44.75 26.5Z" fill="black"/>
<path d="M14.7266 9.5C14.7266 9.92188 14.3984 10.25 14 10.25H6.80469L9.26562 12.7344C9.57031 13.0156 9.57031 13.5078 9.26562 13.7891C9.125 13.9297 8.9375 14 8.75 14C8.53906 14 8.35156 13.9297 8.21094 13.7891L4.46094 10.0391C4.15625 9.75781 4.15625 9.26562 4.46094 8.98438L8.21094 5.23438C8.49219 4.92969 8.98438 4.92969 9.26562 5.23438C9.57031 5.51562 9.57031 6.00781 9.26562 6.28906L6.80469 8.75H14C14.3984 8.75 14.7266 9.10156 14.7266 9.5Z" fill="black"/>
<path d="M31.2734 8.5C31.2734 8.07812 31.6016 7.75 32 7.75L39.1953 7.75L36.7344 5.26562C36.4297 4.98437 36.4297 4.49219 36.7344 4.21094C36.875 4.07031 37.0625 4 37.25 4C37.4609 4 37.6484 4.07031 37.7891 4.21094L41.5391 7.96094C41.8438 8.24219 41.8438 8.73437 41.5391 9.01562L37.7891 12.7656C37.5078 13.0703 37.0156 13.0703 36.7344 12.7656C36.4297 12.4844 36.4297 11.9922 36.7344 11.7109L39.1953 9.25L32 9.25C31.6016 9.25 31.2734 8.89844 31.2734 8.5Z" fill="black"/>
</svg>
