<svg width="140" height="140" viewBox="0 0 140 140" fill="none" xmlns="http://www.w3.org/2000/svg">
<rect width="140" height="140" rx="40" fill="black"/>
<path d="M22.08 45.36H24.48V39H31.68V45.36H34.52V50.2H31.68V60.52C31.68 61.1333 31.8133 61.5733 32.08 61.84C32.3733 62.08 32.8133 62.2 33.4 62.2H34.52V67C33.8533 67 33.1867 67.0133 32.52 67.04C31.8533 67.0933 31.2133 67.12 30.6 67.12C29.5067 67.12 28.5733 67.08 27.8 67C27.0267 66.8933 26.3867 66.6533 25.88 66.28C25.4 65.9067 25.04 65.36 24.8 64.64C24.5867 63.8933 24.48 62.92 24.48 61.72V50.2H22.08V45.36ZM35.8572 45.36H42.8172V48.8H42.8972C43.2972 47.4933 43.9372 46.5067 44.8172 45.84C45.6972 45.1467 46.6705 44.8 47.7372 44.8H48.8972V51.52C48.5772 51.4667 48.2705 51.4267 47.9772 51.4C47.6839 51.3733 47.3905 51.36 47.0972 51.36C45.8172 51.36 44.8172 51.64 44.0972 52.2C43.4039 52.76 43.0572 53.76 43.0572 55.2V67H35.8572V45.36ZM50.2397 38.44H57.4397V43.8H50.2397V38.44ZM50.2397 45.36H57.4397V67H50.2397V45.36ZM58.8722 45.36H66.1922L68.2322 60.92H68.3122L70.3122 45.36H77.7522L72.4722 67H63.9922L58.8722 45.36ZM79.0678 38.44H86.2678V43.8H79.0678V38.44ZM79.0678 45.36H86.2678V67H79.0678V45.36ZM97.1003 62.72C97.9003 62.72 98.4736 62.4267 98.8203 61.84C99.167 61.2533 99.3403 60.36 99.3403 59.16V56.56H99.2603C99.047 56.8533 98.7136 57.04 98.2603 57.12C97.8336 57.1733 97.3536 57.32 96.8203 57.56C96.2603 57.8267 95.8736 58.1867 95.6603 58.64C95.447 59.0667 95.3403 59.64 95.3403 60.36C95.3403 61.08 95.5003 61.6533 95.8203 62.08C96.1403 62.5067 96.567 62.72 97.1003 62.72ZM99.7803 67C99.647 66.6267 99.5536 66.24 99.5003 65.84C99.447 65.44 99.3936 65.0133 99.3403 64.56H99.2603C98.8603 65.52 98.2203 66.24 97.3403 66.72C96.487 67.2 95.5003 67.44 94.3803 67.44C93.287 67.44 92.3536 67.2933 91.5803 67C90.8336 66.7333 90.2203 66.32 89.7403 65.76C89.2603 65.2 88.9136 64.5333 88.7003 63.76C88.487 62.9867 88.3803 62.1333 88.3803 61.2C88.3803 60.1867 88.4736 59.3067 88.6603 58.56C88.8736 57.8133 89.207 57.1733 89.6603 56.64C90.1136 56.08 90.727 55.6133 91.5003 55.24C92.2736 54.84 93.2336 54.5067 94.3803 54.24L97.2203 53.56C97.9936 53.3733 98.5403 53.1067 98.8603 52.76C99.1803 52.3867 99.3403 51.8667 99.3403 51.2C99.3403 49.8667 98.727 49.2 97.5003 49.2C96.807 49.2 96.3003 49.4 95.9803 49.8C95.6603 50.1733 95.487 50.9333 95.4603 52.08H89.2203C89.2203 50.5067 89.5003 49.2533 90.0603 48.32C90.6203 47.36 91.3136 46.6267 92.1403 46.12C92.967 45.5867 93.8603 45.24 94.8203 45.08C95.7803 44.8933 96.6736 44.8 97.5003 44.8C98.7536 44.8 99.9003 44.9067 100.94 45.12C102.007 45.3067 102.914 45.6667 103.66 46.2C104.434 46.7067 105.02 47.4133 105.42 48.32C105.847 49.2 106.06 50.3467 106.06 51.76V62.32C106.06 63.3333 106.1 64.2267 106.18 65C106.26 65.7733 106.447 66.44 106.74 67H99.7803ZM109.38 38.44H116.58V67H109.38V38.44ZM33.36 86.48H42.96V102H37.92L37.76 99.48H37.68C37.44 100.093 37.0933 100.6 36.64 101C36.2133 101.4 35.72 101.707 35.16 101.92C34.6267 102.107 34.04 102.24 33.4 102.32C32.7867 102.4 32.16 102.44 31.52 102.44C29.6267 102.44 28.1333 102.133 27.04 101.52C25.9467 100.88 25.12 99.9333 24.56 98.68C24 97.4267 23.64 95.88 23.48 94.04C23.3467 92.2 23.28 90.0933 23.28 87.72C23.28 85.32 23.4133 83.2 23.68 81.36C23.9733 79.52 24.5067 77.9733 25.28 76.72C26.08 75.4667 27.1733 74.52 28.56 73.88C29.9467 73.2133 31.7333 72.88 33.92 72.88C35.2267 72.88 36.4267 73.0533 37.52 73.4C38.64 73.7467 39.6 74.3067 40.4 75.08C41.2 75.8533 41.8267 76.8533 42.28 78.08C42.7333 79.28 42.96 80.7467 42.96 82.48H35.76C35.76 80.96 35.6267 79.8533 35.36 79.16C35.0933 78.3333 34.52 77.92 33.64 77.92C33.0267 77.92 32.5333 78.0667 32.16 78.36C31.8133 78.6533 31.5467 79.1733 31.36 79.92C31.2 80.6667 31.0933 81.68 31.04 82.96C30.9867 84.2133 30.96 85.8 30.96 87.72C30.96 89.64 30.9867 91.24 31.04 92.52C31.0933 93.7733 31.2 94.7733 31.36 95.52C31.5467 96.2667 31.8 96.7867 32.12 97.08C32.4667 97.3733 32.92 97.52 33.48 97.52C33.88 97.52 34.2267 97.44 34.52 97.28C34.84 97.12 35.1067 96.8267 35.32 96.4C35.5333 95.9467 35.6933 95.3333 35.8 94.56C35.9333 93.76 36 92.7467 36 91.52H33.36V86.48ZM55.3066 79.28L53.2666 91.4H57.4266L55.3866 79.28H55.3066ZM60.0266 73.44L66.9866 102H59.0666L58.3066 97H52.3866L51.6266 102H43.8266L50.6666 73.44H60.0266ZM67.9331 73.44H78.5731L81.5731 90.36H81.6531L84.6531 73.44H95.2931V102H88.3331V80.72H88.2531L84.2931 102H78.9331L74.9731 80.72H74.8931V102H67.9331V73.44ZM98.5256 73.44H115.446V79.52H105.966V84.4H114.846V90.24H105.966V95.92H115.806V102H98.5256V73.44Z" fill="#A5FF00"/>
</svg>
