<svg width="347" height="106" viewBox="0 0 347 106" fill="none" xmlns="http://www.w3.org/2000/svg">
<g clip-path="url(#clip0_2011_25)">
<path d="M347 53.0067L307.379 0V13.6257H39.6212V0L0 53.0067L39.6212 106V92.3743H307.379V106L347 53.0067Z" fill="#A5FF00"/>
<path d="M267.901 36.728H276.829V71H267.901V36.728ZM280.706 36.728H290.69L296.45 57.848H296.546V36.728H304.898V71H295.106L289.154 49.832H289.058V71H280.706V36.728Z" fill="black"/>
<path d="M48.32 53.864C48.32 56.168 48.352 58.088 48.416 59.624C48.48 61.128 48.608 62.328 48.8 63.224C49.024 64.12 49.328 64.744 49.712 65.096C50.128 65.448 50.672 65.624 51.344 65.624C52.016 65.624 52.544 65.448 52.928 65.096C53.344 64.744 53.648 64.12 53.84 63.224C54.064 62.328 54.208 61.128 54.272 59.624C54.336 58.088 54.368 56.168 54.368 53.864C54.368 51.56 54.336 49.656 54.272 48.152C54.208 46.616 54.064 45.4 53.84 44.504C53.648 43.608 53.344 42.984 52.928 42.632C52.544 42.28 52.016 42.104 51.344 42.104C50.672 42.104 50.128 42.28 49.712 42.632C49.328 42.984 49.024 43.608 48.8 44.504C48.608 45.4 48.48 46.616 48.416 48.152C48.352 49.656 48.32 51.56 48.32 53.864ZM39.104 53.864C39.104 50.664 39.312 47.944 39.728 45.704C40.144 43.432 40.832 41.592 41.792 40.184C42.752 38.744 44.016 37.704 45.584 37.064C47.152 36.392 49.072 36.056 51.344 36.056C53.616 36.056 55.536 36.392 57.104 37.064C58.672 37.704 59.936 38.744 60.896 40.184C61.856 41.592 62.544 43.432 62.96 45.704C63.376 47.944 63.584 50.664 63.584 53.864C63.584 57.064 63.376 59.8 62.96 62.072C62.544 64.312 61.856 66.152 60.896 67.592C59.936 69 58.672 70.008 57.104 70.616C55.536 71.224 53.616 71.528 51.344 71.528C49.072 71.528 47.152 71.224 45.584 70.616C44.016 70.008 42.752 69 41.792 67.592C40.832 66.152 40.144 64.312 39.728 62.072C39.312 59.8 39.104 57.064 39.104 53.864ZM75.3279 36.728V61.448C75.3279 63.112 75.5679 64.232 76.0479 64.808C76.5279 65.352 77.1839 65.624 78.0159 65.624C78.8479 65.624 79.5039 65.352 79.9839 64.808C80.4639 64.232 80.7039 63.112 80.7039 61.448V36.728H89.6319V59.192C89.6319 61.592 89.3759 63.592 88.8639 65.192C88.3519 66.792 87.5999 68.072 86.6079 69.032C85.6479 69.992 84.4479 70.648 83.0079 71C81.5679 71.352 79.9039 71.528 78.0159 71.528C76.1599 71.528 74.4959 71.352 73.0239 71C71.5839 70.648 70.3679 69.992 69.3759 69.032C68.4159 68.072 67.6799 66.792 67.1679 65.192C66.6559 63.592 66.3999 61.592 66.3999 59.192V36.728H75.3279ZM97.9678 44.312H91.3438V36.728H113.616V44.312H106.896V71H97.9678V44.312Z" fill="black"/>
<path d="M189.75 55.5V61.75C189.75 67.7656 185.062 72.5312 179.203 72.9219C178.969 73 178.734 73 178.5 73H169.75C166.156 73 162.797 71.3594 160.688 68.5469L159.203 66.5156C158.734 65.8906 158.5 65.1094 158.5 64.25V60.5C158.5 59.4062 158.969 58.3125 159.828 57.6094L162.172 55.7344V59.25C162.172 59.9531 162.719 60.5 163.422 60.5C164.047 60.5 164.672 59.9531 164.672 59.3281L164.75 36.125C164.75 34.4062 166.078 33 167.875 33C169.594 33 171 34.4062 171 36.125V49.0156C171.625 48.3906 172.484 48 173.5 48C175.297 48 176.781 49.3281 177.172 51.125C177.797 50.0312 178.969 49.25 180.375 49.25C182.172 49.25 183.656 50.5781 184.047 52.375C184.594 51.9844 185.219 51.75 186 51.75C188.031 51.75 189.75 53.4688 189.75 55.5Z" fill="black"/>
<path d="M159.727 38.5C159.727 38.9219 159.398 39.25 159 39.25H151.805L154.266 41.7344C154.57 42.0156 154.57 42.5078 154.266 42.7891C154.125 42.9297 153.938 43 153.75 43C153.539 43 153.352 42.9297 153.211 42.7891L149.461 39.0391C149.156 38.7578 149.156 38.2656 149.461 37.9844L153.211 34.2344C153.492 33.9297 153.984 33.9297 154.266 34.2344C154.57 34.5156 154.57 35.0078 154.266 35.2891L151.805 37.75H159C159.398 37.75 159.727 38.1016 159.727 38.5Z" fill="black"/>
<path d="M176.273 37.5C176.273 37.0781 176.602 36.75 177 36.75L184.195 36.75L181.734 34.2656C181.43 33.9844 181.43 33.4922 181.734 33.2109C181.875 33.0703 182.063 33 182.25 33C182.461 33 182.648 33.0703 182.789 33.2109L186.539 36.9609C186.844 37.2422 186.844 37.7344 186.539 38.0156L182.789 41.7656C182.508 42.0703 182.016 42.0703 181.734 41.7656C181.43 41.4844 181.43 40.9922 181.734 40.7109L184.195 38.25L177 38.25C176.602 38.25 176.273 37.8984 176.273 37.5Z" fill="black"/>
</g>
<defs>
<clipPath id="clip0_2011_25">
<rect width="347" height="106" fill="white"/>
</clipPath>
</defs>
</svg>
